/* XPM */
static char *bg_tile[] = {
/* columns rows colors chars-per-pixel */
"16 16 2 1",
"  c #6F6F6F",
". c #B1B1B1",
/* pixels */
"        ........",
"        ........",
"        ........",
"        ........",
"        ........",
"        ........",
"        ........",
"        ........",
"........        ",
"........        ",
"........        ",
"........        ",
"........        ",
"........        ",
"........        ",
"........        "
};
